#!OML:ASF E:\Style4\Style4.ASF
:FULLY-SPECIFIED
:DEGREES
1615
root 0.0973192 17.344 -1.54826 7.15779 0.487242 2.98998
lowerback 16.4767 2.78788 -1.32772
upperback 7.81513 3.45363 0.0728422
thorax -0.990822 1.68724 0.239657
lowerneck 1.69232 -7.30325 -6.80529
upperneck -2.78063 -9.76572 7.41073
head -0.425969 -4.92125 3.60474
rclavicle 7.15625e-014 -1.74931e-014
rhumerus 8.98949 8.70751 -77.627
rradius 122.37
rwrist 16.3291
rhand 22.7218 -1.12456
rfingers 7.12502
rthumb 47.0617 -23.7635
lclavicle 7.15625e-014 -1.74931e-014
lhumerus -10.3038 -35.9114 81.9376
lradius 114.515
lwrist -13.2644
lhand 18.767 39.0262
lfingers 7.12502
lthumb 43.3847 63.1348
rfemur -31.8424 -3.91394 15.796
rtibia 46.262
rfoot -19.0836 -15.938
rtoes -14.1856
lfemur -30.495 1.13141 -21.5547
ltibia 42.9903
lfoot -19.1521 8.40678
ltoes -17.9125
1616
root 0.0956756 17.3479 -1.55592 7.28376 0.433884 3.16172
lowerback 16.3184 2.95618 -1.46915
upperback 7.85105 3.65692 0.0871253
thorax -0.882218 1.78432 0.307994
lowerneck 1.80951 -7.57179 -7.07773
upperneck -2.94253 -10.1298 7.64059
head -0.443148 -5.10635 3.73698
rclavicle 2.5842e-014 -2.22639e-014
rhumerus 8.88162 8.40734 -77.578
rradius 121.335
rwrist 16.7759
rhand 22.4968 -1.24652
rfingers 7.12502
rthumb 46.8535 -23.977
lclavicle 2.5842e-014 -2.22639e-014
lhumerus -10.6796 -36.3357 81.933
lradius 114.991
lwrist -13.2932
lhand 18.8082 39.0066
lfingers 7.12502
lthumb 43.4233 63.1013
rfemur -32.0126 -3.84037 15.6135
rtibia 46.2714
rfoot -19.0395 -15.9253
rtoes -13.956
lfemur -30.6032 1.1554 -21.7386
ltibia 42.9075
lfoot -19.115 8.40065
ltoes -17.5116
1617
root 0.0954748 17.3497 -1.56185 7.34717 0.365726 3.19107
lowerback 16.2793 3.1032 -1.4351
upperback 7.86271 3.85432 0.0902958
thorax -0.850793 1.88312 0.261304
lowerneck 1.91641 -7.83689 -7.16346
upperneck -3.07768 -10.4863 7.76994
head -0.46468 -5.28796 3.79976
rclavicle 3.22031e-014 -2.46493e-014
rhumerus 8.74687 8.13595 -77.6091
rradius 120.247
rwrist 17.1863
rhand 22.3976 -1.41775
rfingers 7.12502
rthumb 46.7617 -24.1882
lclavicle 3.22031e-014 -2.46493e-014
lhumerus -11.0267 -36.7878 81.8005
lradius 115.492
lwrist -13.4043
lhand 18.8028 38.7744
lfingers 7.12502
lthumb 43.4182 62.8709
rfemur -32.1641 -3.73531 15.5705
rtibia 46.3698
rfoot -19.0667 -15.8951
rtoes -13.7909
lfemur -30.6995 1.23763 -21.7786
ltibia 42.9388
lfoot -19.133 8.33889
ltoes -17.0453
1618
root 0.0971086 17.3433 -1.56875 7.41711 0.260242 3.16984
lowerback 16.2106 3.28432 -1.30069
upperback 7.90151 4.11061 0.078774
thorax -0.767827 2.01385 0.136388
lowerneck 1.95181 -8.16808 -7.18575
upperneck -3.14947 -10.9274 7.9075
head -0.448483 -5.51161 3.84573
rclavicle -3.61788e-014 5.56597e-015
rhumerus 8.70109 7.66812 -77.5768
rradius 119.05
rwrist 17.4429
rhand 22.4071 -1.50619
rfingers 7.12502
rthumb 46.7705 -24.2728
lclavicle -3.61788e-014 5.56597e-015
lhumerus -11.2964 -37.4545 81.6536
lradius 116.014
lwrist -13.6221
lhand 18.2514 38.2205
lfingers 7.12502
lthumb 42.9027 62.5008
rfemur -32.4237 -3.62029 15.5731
rtibia 46.5829
rfoot -19.1252 -15.8678
rtoes -13.6852
lfemur -30.8769 1.37031 -21.7792
ltibia 43.0943
lfoot -19.1371 8.32748
ltoes -17.2626
